<?xml version="1.0" standalone="no"?>
<!DOCTYPE svg PUBLIC "-//W3C//DTD SVG 20010904//EN"
 "http://www.w3.org/TR/2001/REC-SVG-20010904/DTD/svg10.dtd">
<svg version="1.0" xmlns="http://www.w3.org/2000/svg"
 width="900.000000pt" height="600.000000pt" viewBox="0 0 900.000000 600.000000"
 preserveAspectRatio="xMidYMid meet">
<metadata>
Created by potrace 1.15, written by Peter Selinger 2001-2017
</metadata>
<g transform="translate(0.000000,600.000000) scale(0.100000,-0.100000)"
fill="#000000" stroke="none">
<path d="M5177 4436 c-97 -26 -165 -110 -174 -215 -10 -109 40 -198 133 -237
51 -21 170 -18 224 7 94 42 134 107 133 214 -1 183 -134 280 -316 231z m185
-32 c109 -56 143 -237 63 -333 -76 -90 -255 -99 -344 -18 -85 78 -66 260 35
330 65 45 179 55 246 21z"/>
<path d="M4461 4130 c-24 -5 -84 -23 -133 -40 -117 -39 -159 -50 -435 -109
-258 -55 -408 -102 -588 -183 -133 -59 -321 -179 -408 -258 -211 -193 -407
-539 -437 -773 -27 -210 11 -487 91 -654 65 -137 209 -282 358 -361 163 -87
421 -157 681 -186 298 -33 370 -38 642 -38 430 -2 625 25 1013 137 143 42 315
126 381 187 20 17 41 20 190 25 163 5 173 6 294 45 158 51 194 69 250 124 25
25 66 58 92 74 71 44 83 69 82 166 -1 44 -7 120 -14 168 -11 71 -11 91 0 111
11 21 11 40 2 100 -6 41 -19 92 -28 113 -9 20 -16 52 -15 70 2 24 -19 78 -78
196 -91 184 -118 260 -156 431 -14 66 -33 126 -40 134 -8 8 -41 25 -72 37 -32
12 -111 43 -175 68 -69 26 -172 56 -250 72 -116 24 -159 27 -338 29 l-205 1
-80 46 c-44 26 -129 85 -190 132 -152 119 -196 139 -304 142 -47 2 -106 -1
-130 -6z m254 -44 c28 -13 102 -63 165 -113 63 -49 147 -107 185 -128 132 -73
350 -241 465 -359 l54 -56 -41 -77 c-47 -89 -106 -251 -133 -368 -33 -140 -44
-290 -45 -560 0 -275 16 -444 56 -584 21 -77 21 -77 -70 -112 -73 -27 -355
-103 -479 -128 -301 -61 -797 -65 -1252 -11 -369 44 -632 129 -806 260 -225
170 -299 342 -299 700 0 215 36 392 118 586 71 168 225 352 392 468 242 169
463 259 835 342 256 56 338 77 470 119 136 44 130 43 240 44 80 1 103 -3 145
-23z m1316 -549 c20 -15 44 -63 52 -104 8 -43 -14 -49 -48 -13 -38 40 -114 64
-174 56 l-46 -6 35 22 c45 27 119 57 145 57 11 0 27 -5 36 -12z m-80 -88 c31
-11 93 -58 85 -66 -1 -2 -31 -14 -65 -28 -57 -22 -62 -23 -56 -5 3 10 1 21 -5
25 -7 4 -10 0 -8 -11 2 -15 -7 -20 -46 -27 -37 -6 -52 -5 -58 5 -7 10 -9 10
-5 -2 3 -10 16 -15 40 -14 49 2 39 -11 -20 -25 -27 -7 -56 -14 -65 -17 -15 -5
-18 2 -18 40 0 32 4 46 14 46 7 0 19 7 26 15 10 12 10 15 -4 15 -20 0 -21 14
-1 30 33 28 130 37 186 19z m-118 -454 c44 -124 61 -252 62 -445 0 -219 -20
-303 -113 -460 l-26 -45 -7 35 c-26 120 -41 314 -36 455 8 203 65 561 87 539
4 -5 19 -40 33 -79z"/>
<path d="M2992 2863 c-8 -3 -4 -11 13 -25 29 -23 32 -58 7 -81 -29 -26 -60
-21 -81 14 l-19 31 -12 -37 c-19 -58 -8 -137 24 -179 87 -114 244 -74 276 70
16 71 -18 159 -76 194 -30 19 -101 26 -132 13z"/>
<path d="M4511 2829 c-50 -20 -54 -30 -21 -50 52 -32 34 -109 -26 -109 -13 0
-29 9 -36 20 -20 31 -28 24 -28 -25 0 -117 110 -205 219 -175 115 31 168 155
110 260 -41 73 -141 110 -218 79z"/>
<path d="M3285 2250 c-34 -66 -7 -153 57 -186 45 -23 155 -23 249 0 l75 18 95
-30 c144 -46 236 -59 312 -43 74 15 117 38 134 72 14 28 17 98 4 117 -5 8 -6
-7 -3 -36 4 -44 1 -52 -26 -84 -37 -42 -86 -58 -175 -58 -87 0 -154 15 -256
57 l-84 35 -56 -22 c-69 -27 -185 -37 -233 -21 -78 26 -115 102 -84 175 18 43
13 48 -9 6z"/>
<path d="M5697 4080 c-56 -10 -98 -56 -104 -113 -7 -62 1 -89 38 -125 63 -62
173 -66 228 -10 35 36 45 73 36 128 -9 51 -38 88 -89 111 -44 20 -51 21 -109
9z m136 -59 c28 -27 32 -38 32 -85 0 -43 -5 -60 -24 -80 -48 -51 -140 -46
-197 10 -28 29 -34 42 -34 78 0 47 26 91 64 107 11 5 45 7 74 6 44 -3 59 -9
85 -36z"/>
</g>
</svg>
